# xmcd CD database file
#
# Track frame offsets:
#	150
#	22002
#	43718
#	62140
#	85189
#	108675
#	126092
#	144438
#	163109
#	180068
#	203201
#	225833
#	249331
#
# Disc length: 3569 seconds
#
# Revision: 0
# Processed by: cddbd v1.5.2PL0 Copyright (c) Steve Scherf et al.
# Submitted via: CDex 1.51
#
DISCID=a50def0d
DTITLE=Taxi Sandanski - Majko Majko
DYEAR=2008
DGENRE=Salsa
TTITLE0=Majko Majko - Ekremov Cocek
TTITLE1=Opa Cupa
TTITLE2=Orevisa
TTITLE3=Underground Cocek
TTITLE4=Benzinadiko
TTITLE5=Phenela Menge
TTITLE6=Jane Sandanski
TTITLE7=Dimineata
TTITLE8=Bucovina
TTITLE9=Fani
TTITLE10=Na Trapeza
TTITLE11=Gypsy Party
TTITLE12=Cocek No. 9
EXTD=YEAR: 2008
EXTT0=
EXTT1=
EXTT2=
EXTT3=
EXTT4=
EXTT5=
EXTT6=
EXTT7=
EXTT8=
EXTT9=
EXTT10=
EXTT11=
EXTT12=
PLAYORDER=
